<?xml version="1.0" encoding="utf-8"?>
<!-- Generator: Adobe Illustrator 18.1.1, SVG Export Plug-In . SVG Version: 6.00 Build 0)  -->
<!DOCTYPE svg PUBLIC "-//W3C//DTD SVG 1.1//EN" "http://www.w3.org/Graphics/SVG/1.1/DTD/svg11.dtd">
<svg version="1.1" id="Layer_1" xmlns="http://www.w3.org/2000/svg" xmlns:xlink="http://www.w3.org/1999/xlink" x="0px" y="0px"
	 width="395.8px" height="64.8px" viewBox="0 0 395.8 64.8" style="enable-background:new 0 0 395.8 64.8;" xml:space="preserve">
<style type="text/css">
	.st0{fill:#E60000;}
</style>
<path class="st0" d="M373.4,16.4h8.1l1.1,4.5c3.7-3,7.6-4.5,11.8-4.5h1.5v9.6h-1.5c-3.6,0-6.9,1.5-10,4.8v33.9h-11V16.4z
	 M363.8,43.2l-0.2,1.2h-30.3c0.6,7.2,5.5,11,16,11c4.6,0,9-0.7,13.5-1.7v9.5c-5.5,1.2-10.5,1.6-16.1,1.6c-16.1,0-24.4-8.4-24.4-24.7
	c0-15.6,7.9-23.7,23.2-23.7C360.7,16.4,366.6,25.9,363.8,43.2 M353.6,34.8c-0.1-6.2-3.1-9-9.4-9c-6.4,0-9.9,2.9-10.8,9H353.6z
	 M304.1,9.1l1.7,7.4h10.9v9.5h-9.3v24.6c0,3.6,1.4,4.9,4,4.9h5.3v9.5h-7.4c-8.5,0-12.9-4.8-12.9-13.7v-42H304.1z M244.2,16.4h8.1
	l1.2,4.9c5.1-3.2,10.4-4.9,15.7-4.9c11.4,0,17.2,6.4,17.2,18.4v30h-11V34.7c0-5.9-2.7-8.6-8.6-8.6c-4,0-7.8,1.6-11.6,4.9v33.8h-11
	V16.4z M191.2,64.8V0h43.4v9.5h-32.4v17.8h30.9v9.5h-30.9v18.7h33.1v9.5H191.2z M159.9,33.7c3.9,0,7.3,0.2,10.4,0.6v-2.6
	c0-3.5-2.7-5.9-10.8-5.9c-5.7,0-10.4,1.1-15.8,2.7V19c5.3-1.6,10.3-2.5,15.8-2.5c13.8,0,21.7,5.1,21.7,16v32.4H175l-2.9-2.9
	c-4,1.9-8.5,2.9-13.6,2.9c-11.9,0-18.6-5.1-18.6-15.6C140,38.7,147.2,33.7,159.9,33.7 M159.9,43.2c-6.6,0-8.9,2.2-8.9,5.9
	c0,4.2,2.1,6.3,7.6,6.3c5,0,8.8-1,11.7-2.8v-8.7C167.4,43.4,163.9,43.2,159.9,43.2 M121.8,9.1l1.7,7.4h10.9v9.5h-9.3v24.6
	c0,3.6,1.4,4.9,4,4.9h5.3v9.5H127c-8.5,0-12.9-4.8-12.9-13.7v-42H121.8z M82.7,33.7c3.9,0,7.3,0.2,10.4,0.6v-2.6
	c0-3.5-2.7-5.9-10.8-5.9c-5.7,0-10.4,1.1-15.8,2.7V19c5.3-1.6,10.3-2.5,15.8-2.5c13.8,0,21.7,5.1,21.7,16v32.4h-6.2L95,61.9
	c-4,1.9-8.5,2.9-13.6,2.9c-11.9,0-18.6-5.1-18.6-15.6C62.8,38.7,70,33.7,82.7,33.7 M82.7,43.2c-6.6,0-8.9,2.2-8.9,5.9
	c0,4.2,2.1,6.3,7.6,6.3c5,0,8.8-1,11.7-2.8v-8.7C90.2,43.4,86.8,43.2,82.7,43.2 M0,0h26.6C46.7,0,57,10.4,57,30.7
	c0,22.4-10.2,34.1-30.5,34.1H0V0z M46.1,30.7c0-14.3-6.9-21.3-21.2-21.3H11v45.9h13.9C39,55.4,46.1,47.5,46.1,30.7"/>
</svg>
